<svg xmlns="http://www.w3.org/2000/svg" width="640" height="640" viewBox="0 0 640 640">
  <rect width="640" height="640" fill="#102b2b"/>
  <circle cx="569" cy="37" r="2" fill="#20524b"/>
  <circle cx="592" cy="353" r="3" fill="#d9b84f"/>
  <circle cx="613" cy="441" r="1" fill="#58b7a1"/>
  <circle cx="598" cy="315" r="1" fill="#58b7a1"/>
  <circle cx="585" cy="209" r="2" fill="#d9b84f"/>
  <circle cx="490" cy="315" r="2" fill="#d9b84f"/>
  <circle cx="275" cy="254" r="1" fill="#d9b84f"/>
  <circle cx="608" cy="209" r="1" fill="#58b7a1"/>
  <circle cx="110" cy="191" r="1" fill="#367666"/>
  <circle cx="29" cy="385" r="3" fill="#58b7a1"/>
  <circle cx="601" cy="635" r="1" fill="#20524b"/>
  <circle cx="280" cy="445" r="1" fill="#58b7a1"/>
  <circle cx="374" cy="321" r="3" fill="#20524b"/>
  <circle cx="560" cy="300" r="2" fill="#367666"/>
  <circle cx="406" cy="517" r="3" fill="#20524b"/>
  <circle cx="50" cy="220" r="2" fill="#d9b84f"/>
  <circle cx="555" cy="281" r="3" fill="#58b7a1"/>
  <circle cx="536" cy="273" r="2" fill="#d9b84f"/>
  <circle cx="588" cy="67" r="1" fill="#58b7a1"/>
  <circle cx="369" cy="634" r="1" fill="#367666"/>
  <circle cx="334" cy="217" r="1" fill="#20524b"/>
  <circle cx="270" cy="262" r="2" fill="#58b7a1"/>
  <circle cx="176" cy="62" r="1" fill="#367666"/>
  <circle cx="464" cy="418" r="2" fill="#367666"/>
  <circle cx="15" cy="283" r="1" fill="#20524b"/>
  <circle cx="296" cy="271" r="2" fill="#20524b"/>
  <circle cx="622" cy="349" r="1" fill="#58b7a1"/>
  <circle cx="3" cy="457" r="2" fill="#58b7a1"/>
  <circle cx="348" cy="105" r="2" fill="#20524b"/>
  <circle cx="520" cy="482" r="1" fill="#d9b84f"/>
  <circle cx="244" cy="589" r="3" fill="#58b7a1"/>
  <circle cx="14" cy="70" r="3" fill="#d9b84f"/>
  <circle cx="236" cy="153" r="2" fill="#58b7a1"/>
  <circle cx="430" cy="422" r="3" fill="#58b7a1"/>
  <circle cx="238" cy="158" r="1" fill="#367666"/>
  <circle cx="480" cy="103" r="2" fill="#367666"/>
  <circle cx="345" cy="623" r="2" fill="#367666"/>
  <circle cx="367" cy="402" r="2" fill="#58b7a1"/>
  <circle cx="142" cy="465" r="2" fill="#d9b84f"/>
  <circle cx="140" cy="158" r="2" fill="#20524b"/>
  <circle cx="276" cy="95" r="1" fill="#367666"/>
  <circle cx="259" cy="257" r="2" fill="#367666"/>
  <circle cx="481" cy="201" r="3" fill="#58b7a1"/>
  <circle cx="631" cy="49" r="2" fill="#d9b84f"/>
  <circle cx="86" cy="7" r="2" fill="#d9b84f"/>
  <circle cx="221" cy="475" r="3" fill="#58b7a1"/>
  <circle cx="552" cy="499" r="3" fill="#d9b84f"/>
  <circle cx="608" cy="547" r="1" fill="#58b7a1"/>
  <circle cx="39" cy="453" r="2" fill="#367666"/>
  <circle cx="267" cy="542" r="3" fill="#d9b84f"/>
  <circle cx="493" cy="502" r="2" fill="#d9b84f"/>
  <circle cx="565" cy="246" r="1" fill="#58b7a1"/>
  <circle cx="205" cy="106" r="2" fill="#20524b"/>
  <circle cx="16" cy="508" r="3" fill="#20524b"/>
  <circle cx="575" cy="441" r="3" fill="#d9b84f"/>
  <circle cx="300" cy="323" r="3" fill="#367666"/>
  <circle cx="364" cy="25" r="1" fill="#58b7a1"/>
  <circle cx="344" cy="261" r="2" fill="#58b7a1"/>
  <circle cx="346" cy="312" r="3" fill="#367666"/>
  <circle cx="258" cy="318" r="2" fill="#d9b84f"/>
  <circle cx="472" cy="554" r="2" fill="#d9b84f"/>
  <circle cx="334" cy="328" r="3" fill="#d9b84f"/>
  <circle cx="369" cy="27" r="3" fill="#d9b84f"/>
  <circle cx="181" cy="586" r="1" fill="#20524b"/>
  <circle cx="222" cy="23" r="1" fill="#20524b"/>
  <circle cx="552" cy="45" r="2" fill="#58b7a1"/>
  <circle cx="83" cy="238" r="1" fill="#58b7a1"/>
  <circle cx="55" cy="571" r="2" fill="#20524b"/>
  <circle cx="216" cy="619" r="1" fill="#20524b"/>
  <circle cx="616" cy="498" r="2" fill="#367666"/>
  <circle cx="278" cy="313" r="2" fill="#367666"/>
  <circle cx="471" cy="288" r="1" fill="#20524b"/>
  <circle cx="338" cy="261" r="1" fill="#58b7a1"/>
  <circle cx="78" cy="284" r="3" fill="#20524b"/>
  <circle cx="459" cy="539" r="3" fill="#d9b84f"/>
  <circle cx="2" cy="407" r="1" fill="#d9b84f"/>
  <circle cx="387" cy="350" r="1" fill="#367666"/>
  <circle cx="413" cy="538" r="3" fill="#367666"/>
  <circle cx="284" cy="210" r="3" fill="#d9b84f"/>
  <circle cx="136" cy="17" r="1" fill="#d9b84f"/>
  <circle cx="79" cy="259" r="1" fill="#d9b84f"/>
  <circle cx="415" cy="634" r="3" fill="#d9b84f"/>
  <circle cx="153" cy="61" r="3" fill="#367666"/>
  <circle cx="228" cy="408" r="2" fill="#367666"/>
  <circle cx="50" cy="350" r="3" fill="#367666"/>
  <circle cx="196" cy="382" r="3" fill="#d9b84f"/>
  <circle cx="120" cy="133" r="1" fill="#367666"/>
  <circle cx="208" cy="166" r="1" fill="#367666"/>
  <circle cx="316" cy="37" r="1" fill="#20524b"/>
  <circle cx="485" cy="249" r="1" fill="#20524b"/>
  <circle cx="41" cy="10" r="1" fill="#20524b"/>
  <circle cx="479" cy="554" r="1" fill="#58b7a1"/>
  <circle cx="458" cy="354" r="3" fill="#367666"/>
  <circle cx="515" cy="128" r="2" fill="#d9b84f"/>
  <circle cx="280" cy="90" r="3" fill="#367666"/>
  <circle cx="264" cy="395" r="2" fill="#d9b84f"/>
  <circle cx="302" cy="112" r="3" fill="#367666"/>
  <circle cx="589" cy="223" r="2" fill="#367666"/>
  <circle cx="271" cy="75" r="3" fill="#367666"/>
  <circle cx="20" cy="395" r="3" fill="#d9b84f"/>
  <circle cx="421" cy="184" r="2" fill="#58b7a1"/>
  <circle cx="248" cy="617" r="3" fill="#367666"/>
  <circle cx="358" cy="269" r="2" fill="#d9b84f"/>
  <circle cx="608" cy="610" r="2" fill="#58b7a1"/>
  <circle cx="101" cy="586" r="1" fill="#d9b84f"/>
  <circle cx="601" cy="108" r="1" fill="#367666"/>
  <circle cx="557" cy="61" r="2" fill="#367666"/>
  <circle cx="634" cy="291" r="3" fill="#d9b84f"/>
  <circle cx="331" cy="588" r="3" fill="#20524b"/>
  <circle cx="6" cy="485" r="3" fill="#20524b"/>
  <circle cx="541" cy="195" r="2" fill="#d9b84f"/>
  <circle cx="460" cy="590" r="3" fill="#58b7a1"/>
  <circle cx="136" cy="338" r="1" fill="#367666"/>
  <circle cx="313" cy="262" r="1" fill="#20524b"/>
  <circle cx="468" cy="532" r="2" fill="#d9b84f"/>
  <circle cx="70" cy="427" r="1" fill="#367666"/>
  <circle cx="19" cy="193" r="2" fill="#d9b84f"/>
  <circle cx="127" cy="124" r="1" fill="#367666"/>
  <circle cx="589" cy="142" r="1" fill="#20524b"/>
  <circle cx="46" cy="86" r="3" fill="#20524b"/>
  <circle cx="499" cy="416" r="1" fill="#20524b"/>
  <circle cx="153" cy="242" r="3" fill="#20524b"/>
  <circle cx="488" cy="68" r="1" fill="#367666"/>
  <circle cx="593" cy="34" r="1" fill="#20524b"/>
  <circle cx="476" cy="354" r="2" fill="#58b7a1"/>
  <circle cx="340" cy="551" r="1" fill="#20524b"/>
  <circle cx="239" cy="121" r="3" fill="#367666"/>
  <circle cx="210" cy="387" r="1" fill="#367666"/>
  <circle cx="542" cy="104" r="1" fill="#20524b"/>
  <circle cx="597" cy="323" r="2" fill="#367666"/>
  <circle cx="166" cy="462" r="1" fill="#d9b84f"/>
  <circle cx="27" cy="156" r="1" fill="#20524b"/>
  <circle cx="325" cy="385" r="2" fill="#20524b"/>
  <circle cx="429" cy="551" r="2" fill="#58b7a1"/>
  <circle cx="511" cy="590" r="3" fill="#d9b84f"/>
  <circle cx="43" cy="575" r="2" fill="#d9b84f"/>
  <circle cx="561" cy="493" r="3" fill="#367666"/>
  <circle cx="116" cy="572" r="2" fill="#20524b"/>
  <circle cx="231" cy="588" r="1" fill="#367666"/>
  <circle cx="200" cy="369" r="1" fill="#367666"/>
  <circle cx="439" cy="469" r="1" fill="#20524b"/>
  <circle cx="496" cy="574" r="1" fill="#367666"/>
  <circle cx="529" cy="111" r="3" fill="#58b7a1"/>
  <circle cx="267" cy="234" r="1" fill="#20524b"/>
  <circle cx="213" cy="494" r="2" fill="#d9b84f"/>
  <circle cx="442" cy="167" r="2" fill="#d9b84f"/>
  <circle cx="84" cy="79" r="1" fill="#20524b"/>
  <circle cx="510" cy="8" r="3" fill="#20524b"/>
  <circle cx="580" cy="172" r="2" fill="#20524b"/>
  <circle cx="332" cy="371" r="2" fill="#d9b84f"/>
  <circle cx="585" cy="600" r="2" fill="#58b7a1"/>
  <circle cx="527" cy="213" r="3" fill="#367666"/>
  <circle cx="165" cy="430" r="2" fill="#367666"/>
  <circle cx="29" cy="230" r="3" fill="#367666"/>
  <circle cx="329" cy="211" r="3" fill="#20524b"/>
  <circle cx="519" cy="15" r="2" fill="#20524b"/>
  <circle cx="14" cy="617" r="1" fill="#58b7a1"/>
  <circle cx="394" cy="282" r="2" fill="#367666"/>
  <circle cx="604" cy="306" r="3" fill="#20524b"/>
  <circle cx="7" cy="422" r="1" fill="#20524b"/>
  <circle cx="434" cy="192" r="3" fill="#20524b"/>
  <circle cx="415" cy="127" r="1" fill="#20524b"/>
  <circle cx="316" cy="72" r="2" fill="#d9b84f"/>
  <circle cx="20" cy="45" r="1" fill="#d9b84f"/>
  <circle cx="18" cy="405" r="1" fill="#d9b84f"/>
  <circle cx="90" cy="126" r="3" fill="#367666"/>
  <circle cx="133" cy="174" r="3" fill="#367666"/>
  <circle cx="322" cy="289" r="1" fill="#367666"/>
  <circle cx="223" cy="591" r="1" fill="#58b7a1"/>
  <circle cx="112" cy="639" r="1" fill="#d9b84f"/>
  <circle cx="140" cy="34" r="2" fill="#d9b84f"/>
  <circle cx="237" cy="223" r="3" fill="#20524b"/>
  <circle cx="540" cy="454" r="1" fill="#d9b84f"/>
  <circle cx="94" cy="546" r="2" fill="#58b7a1"/>
  <circle cx="28" cy="449" r="1" fill="#d9b84f"/>
  <circle cx="192" cy="129" r="2" fill="#d9b84f"/>
  <circle cx="319" cy="94" r="2" fill="#58b7a1"/>
  <circle cx="254" cy="510" r="2" fill="#d9b84f"/>
  <circle cx="603" cy="607" r="2" fill="#58b7a1"/>
  <circle cx="192" cy="364" r="3" fill="#58b7a1"/>
  <circle cx="483" cy="510" r="2" fill="#58b7a1"/>
  <circle cx="400" cy="418" r="2" fill="#58b7a1"/>
  <circle cx="362" cy="126" r="1" fill="#58b7a1"/>
  <circle cx="82" cy="308" r="3" fill="#367666"/>
  <circle cx="185" cy="574" r="1" fill="#367666"/>
  <circle cx="418" cy="376" r="2" fill="#367666"/>
  <circle cx="423" cy="542" r="2" fill="#58b7a1"/>
  <circle cx="75" cy="465" r="2" fill="#367666"/>
  <circle cx="71" cy="241" r="3" fill="#20524b"/>
  <circle cx="350" cy="345" r="1" fill="#367666"/>
  <circle cx="227" cy="282" r="2" fill="#d9b84f"/>
  <circle cx="493" cy="117" r="1" fill="#d9b84f"/>
  <circle cx="299" cy="408" r="3" fill="#58b7a1"/>
  <circle cx="10" cy="135" r="1" fill="#58b7a1"/>
  <circle cx="177" cy="562" r="3" fill="#58b7a1"/>
  <circle cx="274" cy="568" r="2" fill="#367666"/>
  <circle cx="497" cy="66" r="3" fill="#d9b84f"/>
  <circle cx="384" cy="195" r="3" fill="#20524b"/>
  <circle cx="113" cy="294" r="1" fill="#58b7a1"/>
  <circle cx="512" cy="463" r="1" fill="#20524b"/>
</svg>
